<?xml version="1.0" encoding="UTF-8"?>
<svg id="Capa_2" data-name="Capa 2" xmlns="http://www.w3.org/2000/svg" viewBox="0 0 259 243.31"
width="50"
height="50"
>
  <defs>
    <style>
      .cls-1 {
        fill: #0f52ba;
      }
    </style>
  </defs>
  <g id="Capa_1-2" data-name="Capa 1">
    <path class="cls-1" d="M179.63,1.08c-6.08-.78-12.56-1.08-19.43-1.08H5.59v52.09h101.44l-36.79,47.78L0,191.11v52.19h160.31c8.44,0,16.48-.59,23.94-1.67,47.48-6.87,74.76-35.42,74.76-81.33v-77.21c0-46.99-29.43-76.13-79.27-81.92l-.1-.1ZM199.16,161.58c0,15.3-13.93,29.53-38.95,29.53h-87.61l57.39-74.76,47.39-61.71c14.13,4.71,21.78,15.4,21.78,26.98v79.96Z"/>
  </g>
</svg>